<svg xmlns="http://www.w3.org/2000/svg" xmlns:xlink="http://www.w3.org/1999/xlink" width="566" zoomAndPan="magnify" viewBox="0 0 425.25 425.249985" height="566" preserveAspectRatio="xMidYMid meet" version="1.0"><defs><g/></defs><path stroke-linecap="butt" transform="matrix(0.717396, 0, 0, 0.717396, -20.107338, 61.715977)" fill="none" stroke-linejoin="miter" d="M 76.43468 35.369423 C 73.810169 35.369423 71.735608 34.688792 70.20555 33.332976 C 68.675493 31.971716 67.913187 30.158516 67.913187 27.898823 C 67.913187 27.681021 67.940412 27.299868 68.000308 26.755364 L 68.190884 25.339653 C 68.223555 25.121851 68.30523 24.953055 68.435911 24.833264 C 68.577482 24.708028 68.740834 24.642687 68.92052 24.642687 L 75.884731 24.642687 C 76.064417 24.642687 76.205988 24.708028 76.309444 24.833264 C 76.42379 24.953055 76.46735 25.121851 76.43468 25.339653 L 76.347559 26.341541 C 76.287664 26.826149 76.347559 27.223638 76.527246 27.52856 C 76.712377 27.833483 76.984629 27.985944 77.354892 27.985944 C 77.746935 27.985944 78.084528 27.817147 78.35678 27.485 C 78.634478 27.147407 78.770604 26.739029 78.770604 26.25442 C 78.770604 25.791591 78.547357 25.317872 78.100863 24.833264 C 77.659815 24.34321 76.815833 23.591794 75.563473 22.584461 C 74.338338 21.577128 73.331005 20.689586 72.530584 19.910944 C 71.741053 19.132303 71.054977 18.168531 70.472358 17.025071 C 69.900628 15.881612 69.612041 14.569357 69.612041 13.099195 C 69.612041 12.826943 69.644711 12.353224 69.704606 11.683484 C 70.036754 8.966407 71.169323 6.772055 73.091423 5.094981 C 75.013524 3.407018 77.409343 2.568481 80.284326 2.568481 C 82.908837 2.568481 84.977953 3.270892 86.491675 4.681158 C 88.005397 6.080534 88.762258 7.969964 88.762258 10.349448 C 88.762258 10.627145 88.729588 11.068194 88.669693 11.683484 L 88.522676 12.685372 C 88.495451 12.903174 88.40833 13.077415 88.266759 13.202651 C 88.136078 13.322442 87.978172 13.382337 87.798486 13.382337 L 80.877835 13.382337 C 80.698149 13.382337 80.551133 13.322442 80.436787 13.202651 C 80.333331 13.077415 80.295216 12.903174 80.327886 12.685372 L 80.464012 11.503797 C 80.496682 11.040969 80.415007 10.665261 80.21354 10.371228 C 80.012074 10.082641 79.728931 9.935625 79.364113 9.935625 C 78.9394 9.935625 78.590917 10.120756 78.31322 10.496464 C 78.035523 10.861282 77.899397 11.351336 77.899397 11.961181 C 77.899397 12.473015 78.111753 13.006629 78.536467 13.562024 C 78.97207 14.111973 79.761602 14.874279 80.921396 15.854387 C 82.478678 17.166643 83.665698 18.228426 84.487899 19.039737 C 85.315546 19.845604 85.963506 20.727701 86.43178 21.691474 C 86.910944 22.655246 87.150525 23.744255 87.150525 24.96939 C 87.150525 25.214417 87.117855 25.644575 87.05796 26.25442 C 86.693142 29.025947 85.544238 31.24208 83.605802 32.897373 C 81.667367 34.547221 79.276993 35.369423 76.43468 35.369423 Z M 108.631222 9.625257 C 108.598551 9.832169 108.511431 10.000965 108.36986 10.126201 C 108.239178 10.245992 108.064937 10.305888 107.858025 10.305888 L 99.336533 10.305888 C 99.178626 10.305888 99.102396 10.382118 99.102396 10.540025 L 98.552446 15.02674 C 98.492551 15.179202 98.557891 15.260877 98.743023 15.260877 L 103.180733 15.260877 C 103.398535 15.260877 103.561886 15.320773 103.665342 15.440564 C 103.768798 15.560355 103.806913 15.723706 103.774243 15.941508 L 103.050052 21.947391 C 102.952041 22.404774 102.690679 22.628021 102.265966 22.628021 L 97.82281 22.628021 C 97.670349 22.628021 97.588674 22.709697 97.588674 22.867603 L 97.044169 27.392434 C 96.984274 27.55034 97.044169 27.632016 97.223856 27.632016 L 105.745349 27.632016 C 105.957705 27.632016 106.121057 27.691911 106.224512 27.806257 C 106.338858 27.926048 106.376974 28.094845 106.349748 28.312646 L 105.609223 34.318529 C 105.581997 34.525441 105.494877 34.694237 105.353305 34.819473 C 105.217179 34.939264 105.042938 34.99916 104.825136 34.99916 L 88.38655 34.99916 C 88.201419 34.99916 88.054403 34.939264 87.950947 34.819473 C 87.847491 34.694237 87.809376 34.525441 87.836601 34.318529 L 91.593681 3.619375 C 91.626351 3.407018 91.708027 3.243667 91.844153 3.123876 C 91.985724 2.99864 92.14363 2.933299 92.323317 2.933299 L 108.772793 2.933299 C 108.985149 2.933299 109.137611 2.99864 109.246512 3.123876 C 109.355412 3.243667 109.398973 3.407018 109.366302 3.619375 Z M 119.619319 34.99916 C 119.254501 34.99916 119.042145 34.803138 118.982249 34.40565 L 117.653658 22.867603 C 117.653658 22.736922 117.610098 22.677026 117.517532 22.677026 C 117.392296 22.677026 117.326956 22.753257 117.326956 22.911163 L 115.911245 34.318529 C 115.878574 34.525441 115.791454 34.694237 115.649883 34.819473 C 115.519201 34.939264 115.361295 34.99916 115.181609 34.99916 L 108.124833 34.99916 C 107.939701 34.99916 107.792685 34.939264 107.689229 34.819473 C 107.585773 34.694237 107.547658 34.525441 107.574883 34.318529 L 111.331963 3.619375 C 111.364633 3.407018 111.446309 3.243667 111.582435 3.123876 C 111.724006 2.99864 111.881913 2.933299 112.061599 2.933299 L 122.091369 2.933299 C 124.541638 2.933299 126.469184 3.71194 127.884895 5.274668 C 129.311496 6.83195 130.024797 8.890177 130.024797 11.454792 C 130.024797 12.189873 129.992127 12.750712 129.932231 13.148201 C 129.719875 14.825274 129.240711 16.328106 128.500185 17.662141 C 127.770549 18.990732 126.828557 20.063406 125.674207 20.885607 C 125.516301 20.983618 125.467296 21.092519 125.527191 21.21231 L 127.509187 34.215073 L 127.509187 34.40565 C 127.509187 34.585336 127.443847 34.732352 127.318611 34.841253 C 127.19882 34.950154 127.046358 34.99916 126.855782 34.99916 Z M 119.074815 10.305888 C 118.916909 10.305888 118.840678 10.382118 118.840678 10.540025 L 118.154602 15.897947 C 118.154602 16.044964 118.230833 16.121194 118.377849 16.121194 L 118.982249 16.121194 C 119.71733 16.121194 120.33262 15.799937 120.828119 15.157422 C 121.334508 14.520351 121.590425 13.632809 121.590425 12.51113 C 121.590425 11.80872 121.421629 11.269661 121.089481 10.888507 C 120.751888 10.501909 120.294505 10.305888 119.711885 10.305888 Z M 135.693087 34.99916 C 135.268374 34.99916 135.056017 34.803138 135.056017 34.40565 L 132.583967 3.662935 C 132.583967 3.178326 132.828994 2.933299 133.313603 2.933299 L 140.963889 2.933299 C 141.388603 2.933299 141.584624 3.145656 141.551954 3.570369 L 141.551954 20.02529 C 141.524729 20.112411 141.551954 20.161416 141.64452 20.161416 C 141.74253 20.161416 141.802426 20.112411 141.835096 20.02529 L 145.679297 3.570369 C 145.771863 3.145656 146.033225 2.933299 146.463383 2.933299 L 153.879532 2.933299 C 154.097334 2.933299 154.25524 2.99864 154.358696 3.123876 C 154.473042 3.243667 154.478487 3.423353 154.380476 3.662935 L 144.307146 34.40565 C 144.187355 34.803138 143.909658 34.99916 143.479499 34.99916 Z M 153.00288 34.99916 C 152.817749 34.99916 152.676178 34.939264 152.567277 34.819473 C 152.463821 34.694237 152.425706 34.525441 152.458376 34.318529 L 156.215456 3.619375 C 156.242681 3.407018 156.329802 3.243667 156.460483 3.123876 C 156.602054 2.99864 156.765405 2.933299 156.939647 2.933299 L 164.001868 2.933299 C 164.186999 2.933299 164.32857 2.99864 164.437471 3.123876 C 164.540927 3.243667 164.579042 3.407018 164.546372 3.619375 L 160.789292 34.318529 C 160.762067 34.525441 160.674946 34.694237 160.533375 34.819473 C 160.397249 34.939264 160.239343 34.99916 160.065101 34.99916 Z M 172.419905 35.369423 C 169.768169 35.369423 167.666382 34.639787 166.125435 33.17507 C 164.584487 31.710353 163.811291 29.706577 163.811291 27.169187 C 163.811291 26.864265 163.838517 26.341541 163.898412 25.60646 L 165.553705 12.227988 C 165.918523 9.27133 167.094652 6.919071 169.076648 5.182102 C 171.064089 3.439688 173.519804 2.568481 176.460127 2.568481 C 179.111863 2.568481 181.219095 3.292672 182.776377 4.746499 C 184.339105 6.19488 185.117746 8.182321 185.117746 10.719711 C 185.117746 10.997408 185.085076 11.498352 185.02518 12.227988 L 184.98162 12.462125 C 184.943505 12.674482 184.856384 12.848723 184.725703 12.990294 C 184.589577 13.12642 184.431671 13.191761 184.241094 13.191761 L 177.184318 13.425898 C 176.732379 13.425898 176.536358 13.208096 176.596253 12.777938 L 176.726934 11.634478 C 176.78683 11.117199 176.710599 10.703376 176.492797 10.393009 C 176.285886 10.088086 175.980963 9.935625 175.58892 9.935625 C 175.164207 9.935625 174.804834 10.088086 174.516247 10.393009 C 174.222214 10.703376 174.047973 11.117199 173.988077 11.634478 L 172.196658 26.341541 C 172.136763 26.826149 172.207548 27.223638 172.398125 27.52856 C 172.599591 27.833483 172.915404 27.985944 173.340117 27.985944 C 173.770276 27.985944 174.129649 27.844373 174.412791 27.55034 C 174.701378 27.261753 174.881065 26.85882 174.95185 26.341541 L 175.082531 25.100071 C 175.115201 24.893159 175.196877 24.735253 175.327558 24.631797 C 175.469129 24.522896 175.632481 24.463001 175.812167 24.463001 L 182.825383 24.686247 C 183.03774 24.686247 183.201091 24.757033 183.304547 24.898604 C 183.408002 25.03473 183.446118 25.208972 183.413448 25.426773 L 183.369887 25.60646 C 183.005069 28.574008 181.81805 30.942602 179.814274 32.717686 C 177.815943 34.487326 175.354783 35.369423 172.419905 35.369423 Z M 184.834604 34.99916 C 184.649472 34.99916 184.502456 34.939264 184.399 34.819473 C 184.295545 34.694237 184.257429 34.525441 184.284654 34.318529 L 188.041734 3.619375 C 188.074405 3.407018 188.15608 3.243667 188.292206 3.123876 C 188.433778 2.99864 188.591684 2.933299 188.77137 2.933299 L 195.828146 2.933299 C 196.013278 2.933299 196.160294 2.99864 196.26375 3.123876 C 196.367206 3.243667 196.405321 3.407018 196.378096 3.619375 L 192.621016 34.318529 C 192.588346 34.525441 192.501225 34.694237 192.359654 34.819473 C 192.228973 34.939264 192.071067 34.99916 191.89138 34.99916 Z M 204.398645 35.369423 C 201.676123 35.369423 199.536221 34.628897 197.978939 33.1424 C 196.416211 31.661348 195.63757 29.652127 195.63757 27.114737 C 195.63757 26.815259 195.67024 26.29798 195.730136 25.562899 L 197.385429 12.375004 C 197.750247 9.374785 198.931821 6.995301 200.930152 5.225662 C 202.933928 3.456023 205.433203 2.568481 208.422532 2.568481 C 211.106938 2.568481 213.23595 3.309007 214.809568 4.790059 C 216.383185 6.265666 217.167271 8.274887 217.167271 10.806832 C 217.167271 11.117199 217.140046 11.634478 217.080151 12.375004 L 215.479308 25.562899 C 215.11449 28.557673 213.922026 30.942602 211.901915 32.717686 C 209.887248 34.487326 207.387974 35.369423 204.398645 35.369423 Z M 205.302522 27.985944 C 205.765351 27.985944 206.157394 27.806257 206.478651 27.441439 C 206.799909 27.076621 207.001375 26.570232 207.093941 25.927717 L 208.792795 12.004741 C 208.85269 11.362226 208.771015 10.861282 208.558658 10.496464 C 208.346301 10.120756 208.014154 9.935625 207.551325 9.935625 C 207.066716 9.935625 206.663783 10.120756 206.342525 10.496464 C 206.021268 10.861282 205.825246 11.362226 205.759906 12.004741 L 204.071942 25.927717 C 204.044717 26.047508 204.028382 26.216305 204.028382 26.434106 C 204.028382 26.92416 204.137283 27.310758 204.360529 27.583011 C 204.594666 27.855263 204.905034 27.985944 205.302522 27.985944 Z M 225.596199 35.369423 C 222.971688 35.369423 220.897126 34.688792 219.367069 33.332976 C 217.837012 31.971716 217.074706 30.158516 217.074706 27.898823 C 217.074706 27.681021 217.101931 27.299868 217.161826 26.755364 L 217.352403 25.339653 C 217.385073 25.121851 217.466749 24.953055 217.59743 24.833264 C 217.739001 24.708028 217.902352 24.642687 218.082039 24.642687 L 225.046249 24.642687 C 225.225936 24.642687 225.367507 24.708028 225.470963 24.833264 C 225.585309 24.953055 225.623424 25.121851 225.596199 25.339653 L 225.503633 26.341541 C 225.443737 26.826149 225.503633 27.223638 225.683319 27.52856 C 225.873896 27.833483 226.146148 27.985944 226.510966 27.985944 C 226.908454 27.985944 227.240602 27.817147 227.518299 27.485 C 227.795996 27.147407 227.932122 26.739029 227.932122 26.25442 C 227.932122 25.791591 227.708876 25.317872 227.262382 24.833264 C 226.821333 24.34321 225.977352 23.591794 224.724992 22.584461 C 223.499857 21.577128 222.492524 20.689586 221.692103 19.910944 C 220.902571 19.132303 220.216496 18.168531 219.633876 17.025071 C 219.062147 15.881612 218.773559 14.569357 218.773559 13.099195 C 218.773559 12.826943 218.800785 12.353224 218.86068 11.683484 C 219.198273 8.966407 220.325397 6.772055 222.252942 5.094981 C 224.175042 3.407018 226.570861 2.568481 229.440399 2.568481 C 232.06491 2.568481 234.134027 3.270892 235.647749 4.681158 C 237.161471 6.080534 237.918332 7.969964 237.918332 10.349448 C 237.918332 10.627145 237.891107 11.068194 237.831211 11.683484 L 237.684195 12.685372 C 237.65697 12.903174 237.569849 13.077415 237.428278 13.202651 C 237.292152 13.322442 237.139691 13.382337 236.960004 13.382337 L 230.033909 13.382337 C 229.854223 13.382337 229.712651 13.322442 229.598306 13.202651 C 229.49485 13.077415 229.456734 12.903174 229.489405 12.685372 L 229.620086 11.503797 C 229.658201 11.040969 229.576525 10.665261 229.375059 10.371228 C 229.173592 10.082641 228.89045 9.935625 228.525632 9.935625 C 228.100919 9.935625 227.752436 10.120756 227.474739 10.496464 C 227.197041 10.861282 227.060915 11.351336 227.060915 11.961181 C 227.060915 12.473015 227.273272 13.006629 227.697985 13.562024 C 228.128144 14.111973 228.92312 14.874279 230.082914 15.854387 C 231.640197 17.166643 232.827216 18.228426 233.649418 19.039737 C 234.477064 19.845604 235.125025 20.727701 235.593298 21.691474 C 236.072462 22.655246 236.312044 23.744255 236.312044 24.96939 C 236.312044 25.214417 236.279374 25.644575 236.219478 26.25442 C 235.85466 29.025947 234.705756 31.24208 232.761876 32.897373 C 230.82344 34.547221 228.438511 35.369423 225.596199 35.369423 Z M 259.06688 2.568481 C 261.729507 2.568481 263.814958 3.336232 265.323235 4.882625 C 266.836957 6.423572 267.593818 8.509024 267.593818 11.133534 C 267.593818 11.498352 267.561148 12.048302 267.501253 12.777938 L 265.949415 25.149076 C 265.698943 27.316203 265.012868 29.216524 263.880299 30.850037 C 262.753175 32.48355 261.304793 33.681459 259.529709 34.454655 C 259.437143 34.509106 259.366358 34.601671 259.306462 34.721462 L 258.892639 38.298856 C 258.859969 38.516658 258.772848 38.685454 258.631277 38.805245 C 258.500596 38.919591 258.320909 38.979486 258.108553 38.979486 L 251.106227 38.979486 C 250.888425 38.979486 250.725074 38.919591 250.616173 38.805245 C 250.507272 38.685454 250.474602 38.516658 250.501827 38.298856 L 250.959211 34.721462 C 250.959211 34.601671 250.91565 34.509106 250.82853 34.454655 C 249.483604 33.77947 248.443601 32.783027 247.70852 31.454436 C 246.973439 30.120401 246.608621 28.552228 246.608621 26.755364 C 246.608621 26.423216 246.641291 25.884157 246.701187 25.149076 L 248.263914 12.777938 C 248.508941 10.763271 249.124231 8.988187 250.098894 7.441795 C 251.073557 5.900848 252.342252 4.702938 253.888644 3.853511 C 255.451372 2.993195 257.17745 2.568481 259.06688 2.568481 Z M 254.955873 26.063843 C 254.895977 26.646463 254.955873 27.109292 255.130114 27.46322 C 255.320691 27.811702 255.592943 27.985944 255.957761 27.985944 C 256.355249 27.985944 256.698287 27.811702 256.986874 27.46322 C 257.280906 27.109292 257.455148 26.646463 257.515043 26.063843 L 259.257457 11.868615 C 259.317352 11.291441 259.257457 10.823167 259.06688 10.474684 C 258.892639 10.115311 258.604052 9.935625 258.206564 9.935625 C 257.80363 9.935625 257.466038 10.115311 257.18834 10.474684 C 256.921533 10.823167 256.752737 11.291441 256.687396 11.868615 Z M 276.289553 35.369423 C 273.665042 35.369423 271.585035 34.618007 270.060423 33.12062 C 268.535811 31.623233 267.773505 29.603122 267.773505 27.071176 C 267.773505 26.733584 267.806175 26.19997 267.866071 25.470334 L 270.561367 3.619375 C 270.599482 3.407018 270.686603 3.243667 270.817284 3.123876 C 270.95341 2.99864 271.111316 2.933299 271.301893 2.933299 L 278.358669 2.933299 C 278.532911 2.933299 278.674482 2.99864 278.783383 3.123876 C 278.892283 3.243667 278.935844 3.407018 278.903173 3.619375 L 276.153427 26.29798 C 276.093531 26.815259 276.153427 27.223638 276.333113 27.52856 C 276.518244 27.833483 276.806832 27.985944 277.20432 27.985944 C 277.607253 27.985944 277.933956 27.833483 278.189873 27.52856 C 278.451235 27.223638 278.609141 26.815259 278.669037 26.29798 L 281.467789 3.619375 C 281.495014 3.407018 281.571245 3.243667 281.691036 3.123876 C 281.816272 2.99864 281.985068 2.933299 282.20287 2.933299 L 289.216086 2.933299 C 289.422997 2.933299 289.580904 2.99864 289.684359 3.123876 C 289.798705 3.243667 289.836821 3.407018 289.809595 3.619375 L 287.103409 25.470334 C 286.858382 27.425104 286.243092 29.151183 285.268429 30.64857 C 284.293766 32.145957 283.025071 33.311196 281.467789 34.138843 C 279.905061 34.961044 278.178983 35.369423 276.289553 35.369423 Z M 309.079604 9.625257 C 309.052379 9.832169 308.965258 10.000965 308.823687 10.126201 C 308.693006 10.245992 308.518764 10.305888 308.311853 10.305888 L 299.79036 10.305888 C 299.632454 10.305888 299.550778 10.382118 299.550778 10.540025 L 299.006274 15.02674 C 298.946378 15.179202 299.011719 15.260877 299.19685 15.260877 L 303.634561 15.260877 C 303.852362 15.260877 304.010269 15.320773 304.119169 15.440564 C 304.222625 15.560355 304.260741 15.723706 304.22807 15.941508 L 303.503879 21.947391 C 303.405869 22.404774 303.144507 22.628021 302.719793 22.628021 L 298.276638 22.628021 C 298.124177 22.628021 298.042501 22.709697 298.042501 22.867603 L 297.497997 27.392434 C 297.438101 27.55034 297.497997 27.632016 297.672238 27.632016 L 306.199176 27.632016 C 306.411533 27.632016 306.574884 27.691911 306.67834 27.806257 C 306.787241 27.926048 306.830801 28.094845 306.798131 28.312646 L 306.06305 34.318529 C 306.03038 34.525441 305.948704 34.694237 305.807133 34.819473 C 305.671007 34.939264 305.496765 34.99916 305.278964 34.99916 L 288.840378 34.99916 C 288.655246 34.99916 288.50823 34.939264 288.404774 34.819473 C 288.295873 34.694237 288.263203 34.525441 288.290428 34.318529 L 292.047508 3.619375 C 292.080178 3.407018 292.161854 3.243667 292.292535 3.123876 C 292.434106 2.99864 292.597458 2.933299 292.777144 2.933299 L 309.22662 2.933299 C 309.438977 2.933299 309.591438 2.99864 309.694894 3.123876 C 309.80924 3.243667 309.8528 3.407018 309.82013 3.619375 Z M 326.351282 35.369423 C 323.634205 35.369423 321.494303 34.628897 319.931575 33.1424 C 318.374293 31.661348 317.595652 29.652127 317.595652 27.114737 C 317.595652 26.815259 317.628322 26.29798 317.688218 25.562899 L 319.343511 12.375004 C 319.708329 9.374785 320.889903 6.995301 322.888234 5.225662 C 324.89201 3.456023 327.391285 2.568481 330.380614 2.568481 C 333.06502 2.568481 335.194032 3.309007 336.76765 4.790059 C 338.341267 6.265666 339.125353 8.274887 339.125353 10.806832 C 339.125353 11.117199 339.098128 11.634478 339.038233 12.375004 L 337.43739 25.562899 C 337.072572 28.557673 335.880107 30.942602 333.859996 32.717686 C 331.84533 34.487326 329.34061 35.369423 326.351282 35.369423 Z M 327.260604 27.985944 C 327.723432 27.985944 328.115476 27.806257 328.431288 27.441439 C 328.752546 27.076621 328.959457 26.570232 329.046578 25.927717 L 330.750877 12.004741 C 330.810772 11.362226 330.729096 10.861282 330.511295 10.496464 C 330.304383 10.120756 329.972235 9.935625 329.509407 9.935625 C 329.024798 9.935625 328.621865 10.120756 328.300607 10.496464 C 327.97935 10.861282 327.783328 11.362226 327.717987 12.004741 L 326.030024 25.927717 C 325.997354 26.047508 325.986464 26.216305 325.986464 26.434106 C 325.986464 26.92416 326.095365 27.310758 326.318611 27.583011 C 326.552748 27.855263 326.863116 27.985944 327.260604 27.985944 Z M 359.184893 9.625257 C 359.152223 9.832169 359.070547 10.000965 358.928976 10.126201 C 358.79285 10.245992 358.618609 10.305888 358.411697 10.305888 L 349.890204 10.305888 C 349.732298 10.305888 349.656067 10.382118 349.656067 10.540025 L 349.106118 15.02674 C 349.046222 15.179202 349.111563 15.260877 349.296694 15.260877 L 353.73985 15.260877 C 353.952207 15.260877 354.115558 15.320773 354.219014 15.440564 C 354.322469 15.560355 354.360585 15.723706 354.327914 15.941508 L 353.603724 21.947391 C 353.505713 22.404774 353.244351 22.628021 352.819637 22.628021 L 348.381927 22.628021 C 348.224021 22.628021 348.14779 22.709697 348.14779 22.867603 L 346.726634 34.318529 C 346.693964 34.525441 346.606843 34.694237 346.465272 34.819473 C 346.334591 34.939264 346.176685 34.99916 345.996998 34.99916 L 338.940222 34.99916 C 338.75509 34.99916 338.608074 34.939264 338.504618 34.819473 C 338.401163 34.694237 338.363047 34.525441 338.390272 34.318529 L 342.152797 3.619375 C 342.180023 3.407018 342.261698 3.243667 342.397824 3.123876 C 342.539396 2.99864 342.697302 2.933299 342.876988 2.933299 L 359.331909 2.933299 C 359.538821 2.933299 359.696727 2.99864 359.800183 3.123876 C 359.909084 3.243667 359.952644 3.407018 359.919974 3.619375 Z M 369.628486 34.99916 C 369.263669 34.99916 369.051312 34.803138 368.991416 34.40565 L 367.657381 22.867603 C 367.657381 22.736922 367.61382 22.677026 367.5267 22.677026 C 367.396019 22.677026 367.336123 22.753257 367.336123 22.911163 L 365.914967 34.318529 C 365.882297 34.525441 365.800621 34.694237 365.65905 34.819473 C 365.522924 34.939264 365.365017 34.99916 365.185331 34.99916 L 358.128555 34.99916 C 357.943423 34.99916 357.796407 34.939264 357.692951 34.819473 C 357.589495 34.694237 357.55138 34.525441 357.58405 34.318529 L 361.34113 3.619375 C 361.368356 3.407018 361.450031 3.243667 361.586157 3.123876 C 361.727728 2.99864 361.885635 2.933299 362.065321 2.933299 L 372.100536 2.933299 C 374.545361 2.933299 376.472906 3.71194 377.894062 5.274668 C 379.315219 6.83195 380.028519 8.890177 380.028519 11.454792 C 380.028519 12.189873 379.995849 12.750712 379.941399 13.148201 C 379.723597 14.825274 379.244433 16.328106 378.509352 17.662141 C 377.774271 18.990732 376.832279 20.063406 375.67793 20.885607 C 375.520023 20.983618 375.471018 21.092519 375.530913 21.21231 L 377.512909 34.215073 L 377.512909 34.40565 C 377.512909 34.585336 377.447569 34.732352 377.322333 34.841253 C 377.202542 34.950154 377.050081 34.99916 376.864949 34.99916 Z M 369.078537 10.305888 C 368.920631 10.305888 368.8444 10.382118 368.8444 10.540025 L 368.16377 15.897947 C 368.16377 16.044964 368.234555 16.121194 368.387017 16.121194 L 368.991416 16.121194 C 369.721052 16.121194 370.336342 15.799937 370.837286 15.157422 C 371.343675 14.520351 371.594147 13.632809 371.594147 12.51113 C 371.594147 11.80872 371.425351 11.269661 371.093203 10.888507 C 370.75561 10.501909 370.298227 10.305888 369.715607 10.305888 Z M 400.126174 9.625257 C 400.098949 9.832169 400.011829 10.000965 399.870257 10.126201 C 399.734131 10.245992 399.565335 10.305888 399.352978 10.305888 L 390.831485 10.305888 C 390.673579 10.305888 390.597349 10.382118 390.597349 10.540025 L 390.047399 15.02674 C 389.987504 15.179202 390.052844 15.260877 390.237976 15.260877 L 394.681131 15.260877 C 394.893488 15.260877 395.056839 15.320773 395.160295 15.440564 C 395.263751 15.560355 395.301866 15.723706 395.274641 15.941508 L 394.545005 21.947391 C 394.446994 22.404774 394.185632 22.628021 393.760919 22.628021 L 389.323208 22.628021 C 389.165302 22.628021 389.089072 22.709697 389.089072 22.867603 L 388.539122 27.392434 C 388.479227 27.55034 388.539122 27.632016 388.718809 27.632016 L 397.240301 27.632016 C 397.458103 27.632016 397.616009 27.691911 397.719465 27.806257 C 397.833811 27.926048 397.877372 28.094845 397.844701 28.312646 L 397.104175 34.318529 C 397.07695 34.525441 396.989829 34.694237 396.848258 34.819473 C 396.717577 34.939264 396.537891 34.99916 396.325534 34.99916 L 379.881503 34.99916 C 379.696372 34.99916 379.549355 34.939264 379.4459 34.819473 C 379.342444 34.694237 379.304329 34.525441 379.336999 34.318529 L 383.094079 3.619375 C 383.121304 3.407018 383.20298 3.243667 383.339106 3.123876 C 383.480677 2.99864 383.638583 2.933299 383.818269 2.933299 L 400.273191 2.933299 C 400.480102 2.933299 400.638009 2.99864 400.741464 3.123876 C 400.85581 3.243667 400.893926 3.407018 400.8667 3.619375 Z M 408.36997 35.369423 C 405.712789 35.369423 403.616447 34.639787 402.070055 33.17507 C 400.529108 31.710353 399.755912 29.706577 399.755912 27.169187 C 399.755912 26.864265 399.783137 26.341541 399.843032 25.60646 L 401.498325 12.227988 C 401.868588 9.27133 403.039273 6.919071 405.021268 5.182102 C 407.008709 3.439688 409.469869 2.568481 412.404747 2.568481 C 415.061928 2.568481 417.163715 3.292672 418.726443 4.746499 C 420.283725 6.19488 421.062366 8.182321 421.062366 10.719711 C 421.062366 10.997408 421.029696 11.498352 420.969801 12.227988 L 420.92624 12.462125 C 420.888125 12.674482 420.806449 12.848723 420.670323 12.990294 C 420.534197 13.12642 420.376291 13.191761 420.191159 13.191761 L 413.134383 13.425898 C 412.676999 13.425898 412.480978 13.208096 412.540873 12.777938 L 412.671554 11.634478 C 412.73145 11.117199 412.655219 10.703376 412.437418 10.393009 C 412.230506 10.088086 411.925583 9.935625 411.53354 9.935625 C 411.108827 9.935625 410.749454 10.088086 410.460867 10.393009 C 410.166834 10.703376 409.992593 11.117199 409.932698 11.634478 L 408.141278 26.341541 C 408.086828 26.826149 408.152168 27.223638 408.342745 27.52856 C 408.544212 27.833483 408.860024 27.985944 409.284737 27.985944 C 409.714896 27.985944 410.074269 27.844373 410.357411 27.55034 C 410.651443 27.261753 410.825685 26.85882 410.89647 26.341541 L 411.027151 25.100071 C 411.059822 24.893159 411.141497 24.735253 411.277623 24.631797 C 411.419194 24.522896 411.577101 24.463001 411.756787 24.463001 L 418.770003 24.686247 C 418.98236 24.686247 419.145711 24.757033 419.249167 24.898604 C 419.352623 25.03473 419.390738 25.208972 419.363513 25.426773 L 419.314507 25.60646 C 418.949689 28.574008 417.768115 30.942602 415.758894 32.717686 C 413.760563 34.487326 411.299403 35.369423 408.36997 35.369423 Z M 441.023895 9.625257 C 440.991225 9.832169 440.909549 10.000965 440.767978 10.126201 C 440.631852 10.245992 440.457611 10.305888 440.250699 10.305888 L 431.729206 10.305888 C 431.5713 10.305888 431.495069 10.382118 431.495069 10.540025 L 430.94512 15.02674 C 430.885225 15.179202 430.950565 15.260877 431.135697 15.260877 L 435.578852 15.260877 C 435.791209 15.260877 435.95456 15.320773 436.058016 15.440564 C 436.161472 15.560355 436.199587 15.723706 436.166917 15.941508 L 435.442726 21.947391 C 435.344715 22.404774 435.083353 22.628021 434.65864 22.628021 L 430.220929 22.628021 C 430.063023 22.628021 429.986792 22.709697 429.986792 22.867603 L 429.436843 27.392434 C 429.376948 27.55034 429.436843 27.632016 429.616529 27.632016 L 438.138022 27.632016 C 438.355824 27.632016 438.51373 27.691911 438.617186 27.806257 C 438.731532 27.926048 438.769647 28.094845 438.742422 28.312646 L 438.001896 34.318529 C 437.974671 34.525441 437.88755 34.694237 437.745979 34.819473 C 437.609853 34.939264 437.435612 34.99916 437.21781 34.99916 L 420.779224 34.99916 C 420.594093 34.99916 420.447076 34.939264 420.343621 34.819473 C 420.240165 34.694237 420.202049 34.525441 420.229275 34.318529 L 423.9918 3.619375 C 424.019025 3.407018 424.100701 3.243667 424.236827 3.123876 C 424.378398 2.99864 424.536304 2.933299 424.71599 2.933299 L 441.170912 2.933299 C 441.377823 2.933299 441.535729 2.99864 441.639185 3.123876 C 441.748086 3.243667 441.791646 3.407018 441.758976 3.619375 Z M 469.648488 9.625257 C 469.615818 9.832169 469.528698 10.000965 469.387126 10.126201 C 469.256445 10.245992 469.082204 10.305888 468.875292 10.305888 L 460.353799 10.305888 C 460.195893 10.305888 460.119663 10.382118 460.119663 10.540025 L 459.569713 15.02674 C 459.509818 15.179202 459.575158 15.260877 459.76029 15.260877 L 464.198 15.260877 C 464.415802 15.260877 464.573708 15.320773 464.682609 15.440564 C 464.786065 15.560355 464.82418 15.723706 464.79151 15.941508 L 464.067319 21.947391 C 463.969308 22.404774 463.707946 22.628021 463.283233 22.628021 L 458.840077 22.628021 C 458.687616 22.628021 458.60594 22.709697 458.60594 22.867603 L 458.061436 27.392434 C 458.001541 27.55034 458.061436 27.632016 458.235678 27.632016 L 466.762615 27.632016 C 466.974972 27.632016 467.138323 27.691911 467.241779 27.806257 C 467.35068 27.926048 467.39424 28.094845 467.367015 28.312646 L 466.626489 34.318529 C 466.599264 34.525441 466.512143 34.694237 466.370572 34.819473 C 466.234446 34.939264 466.060205 34.99916 465.842403 34.99916 L 449.403817 34.99916 C 449.218686 34.99916 449.071669 34.939264 448.968214 34.819473 C 448.864758 34.694237 448.826643 34.525441 448.853868 34.318529 L 452.610948 3.619375 C 452.643618 3.407018 452.725294 3.243667 452.86142 3.123876 C 453.002991 2.99864 453.160897 2.933299 453.340584 2.933299 L 469.79006 2.933299 C 470.002416 2.933299 470.154877 2.99864 470.263778 3.123876 C 470.372679 3.243667 470.41624 3.407018 470.383569 3.619375 Z M 469.142099 34.99916 C 468.956968 34.99916 468.809952 34.939264 468.706496 34.819473 C 468.60304 34.694237 468.564925 34.525441 468.59215 34.318529 L 472.34923 3.619375 C 472.3819 3.407018 472.463576 3.243667 472.599702 3.123876 C 472.741273 2.99864 472.899179 2.933299 473.078866 2.933299 L 480.135642 2.933299 C 480.320774 2.933299 480.46779 2.99864 480.571245 3.123876 C 480.674701 3.243667 480.712817 3.407018 480.685591 3.619375 L 477.799718 27.392434 C 477.739823 27.55034 477.799718 27.632016 477.979405 27.632016 L 486.691474 27.632016 C 486.898386 27.632016 487.056292 27.691911 487.159748 27.806257 C 487.268649 27.926048 487.312209 28.094845 487.279539 28.312646 L 486.544458 34.318529 C 486.451892 34.770468 486.195975 34.99916 485.771262 34.99916 Z M 506.603998 35.369423 C 503.946817 35.369423 501.850475 34.639787 500.304083 33.17507 C 498.763135 31.710353 497.989939 29.706577 497.989939 27.169187 C 497.989939 26.864265 498.02261 26.341541 498.07706 25.60646 L 499.732353 12.227988 C 500.102616 9.27133 501.2733 6.919071 503.255296 5.182102 C 505.242737 3.439688 507.703897 2.568481 510.638775 2.568481 C 513.295956 2.568481 515.397743 3.292672 516.96047 4.746499 C 518.517753 6.19488 519.296394 8.182321 519.296394 10.719711 C 519.296394 10.997408 519.263724 11.498352 519.203828 12.227988 L 519.160268 12.462125 C 519.122153 12.674482 519.040477 12.848723 518.904351 12.990294 C 518.768225 13.12642 518.610319 13.191761 518.425187 13.191761 L 511.368411 13.425898 C 510.911027 13.425898 510.715006 13.208096 510.774901 12.777938 L 510.905582 11.634478 C 510.965478 11.117199 510.889247 10.703376 510.671445 10.393009 C 510.464534 10.088086 510.159611 9.935625 509.767568 9.935625 C 509.342855 9.935625 508.983482 10.088086 508.694895 10.393009 C 508.400862 10.703376 508.226621 11.117199 508.166725 11.634478 L 506.380751 26.341541 C 506.320856 26.826149 506.386196 27.223638 506.582218 27.52856 C 506.778239 27.833483 507.094052 27.985944 507.518765 27.985944 C 507.948924 27.985944 508.308297 27.844373 508.591439 27.55034 C 508.885471 27.261753 509.065158 26.85882 509.130498 26.341541 L 509.261179 25.100071 C 509.293849 24.893159 509.375525 24.735253 509.511651 24.631797 C 509.653222 24.522896 509.811129 24.463001 509.990815 24.463001 L 517.004031 24.686247 C 517.221833 24.686247 517.379739 24.757033 517.483195 24.898604 C 517.58665 25.03473 517.624766 25.208972 517.597541 25.426773 L 517.548535 25.60646 C 517.183717 28.574008 516.002143 30.942602 513.992922 32.717686 C 511.994591 34.487326 509.533431 35.369423 506.603998 35.369423 Z M 519.013252 34.99916 C 518.82812 34.99916 518.681104 34.939264 518.577648 34.819473 C 518.474193 34.694237 518.436077 34.525441 518.468747 34.318529 L 522.225827 3.619375 C 522.253053 3.407018 522.334728 3.243667 522.470854 3.123876 C 522.612426 2.99864 522.770332 2.933299 522.950018 2.933299 L 530.006794 2.933299 C 530.191926 2.933299 530.338942 2.99864 530.442398 3.123876 C 530.551299 3.243667 530.583969 3.407018 530.556744 3.619375 L 527.670871 27.392434 C 527.610975 27.55034 527.670871 27.632016 527.850557 27.632016 L 536.562627 27.632016 C 536.769538 27.632016 536.927445 27.691911 537.0309 27.806257 C 537.145246 27.926048 537.183362 28.094845 537.156136 28.312646 L 536.415611 34.318529 C 536.32849 34.770468 536.072573 34.99916 535.642414 34.99916 Z M 547.681405 35.369423 C 545.056894 35.369423 542.976888 34.618007 541.452276 33.12062 C 539.927663 31.623233 539.170802 29.603122 539.170802 27.071176 C 539.170802 26.733584 539.198028 26.19997 539.257923 25.470334 L 541.95322 3.619375 C 541.991335 3.407018 542.078456 3.243667 542.209137 3.123876 C 542.345263 2.99864 542.503169 2.933299 542.693746 2.933299 L 549.750522 2.933299 C 549.930208 2.933299 550.071779 2.99864 550.175235 3.123876 C 550.284136 3.243667 550.327696 3.407018 550.295026 3.619375 L 547.545279 26.29798 C 547.485384 26.815259 547.545279 27.223638 547.724966 27.52856 C 547.910097 27.833483 548.204129 27.985944 548.596173 27.985944 C 548.999106 27.985944 549.325808 27.833483 549.581725 27.52856 C 549.843088 27.223638 550.000994 26.815259 550.060889 26.29798 L 552.859642 3.619375 C 552.886867 3.407018 552.963097 3.243667 553.082888 3.123876 C 553.208124 2.99864 553.382366 2.933299 553.594722 2.933299 L 560.607938 2.933299 C 560.81485 2.933299 560.972756 2.99864 561.076212 3.123876 C 561.190558 3.243667 561.228673 3.407018 561.201448 3.619375 L 558.495261 25.470334 C 558.250235 27.425104 557.634945 29.151183 556.660282 30.64857 C 555.685619 32.145957 554.416924 33.311196 552.859642 34.138843 C 551.296914 34.961044 549.570835 35.369423 547.681405 35.369423 Z M 580.340776 25.797036 C 580.003183 28.753695 578.832499 31.029723 576.828723 32.619676 C 574.830392 34.204183 572.429127 34.99916 569.62493 34.99916 L 560.23223 34.99916 C 560.047099 34.99916 559.900083 34.939264 559.796627 34.819473 C 559.693171 34.694237 559.655056 34.525441 559.682281 34.318529 L 563.439361 3.619375 C 563.472031 3.407018 563.553707 3.243667 563.689833 3.123876 C 563.831404 2.99864 563.98931 2.933299 564.168997 2.933299 L 572.233106 2.933299 C 575.162539 2.933299 577.444012 3.554034 579.077525 4.790059 C 580.716484 6.031529 581.538685 7.899179 581.538685 10.393009 C 581.538685 10.703376 581.506015 11.220655 581.435229 11.961181 C 581.070411 14.803494 579.954177 16.90528 578.091973 18.277431 C 577.912286 18.369997 577.868726 18.462563 577.955847 18.560574 C 579.605695 19.95995 580.427896 21.931055 580.427896 24.463001 C 580.427896 24.740698 580.400671 25.181746 580.340776 25.797036 Z M 571.182213 10.305888 C 571.024306 10.305888 570.948076 10.382118 570.948076 10.540025 L 570.354566 15.217317 C 570.354566 15.364333 570.414461 15.440564 570.545142 15.440564 L 570.81195 15.440564 C 572.124205 15.440564 572.902846 14.585692 573.147873 12.875948 L 573.191434 12.271549 C 573.191434 10.959293 572.614259 10.305888 571.44902 10.305888 Z M 569.848177 27.632016 C 570.523362 27.632016 571.078757 27.310758 571.51436 26.668243 C 571.960854 26.025728 572.189546 25.110961 572.189546 23.918496 C 572.189546 23.216086 572.047974 22.655246 571.775722 22.225088 C 571.498025 21.794929 571.116872 21.577128 570.632263 21.577128 L 569.804617 21.577128 C 569.6576 21.577128 569.58137 21.653358 569.58137 21.800374 L 568.889849 27.392434 C 568.829954 27.55034 568.889849 27.632016 569.064091 27.632016 Z M 569.848177 27.632016 " stroke="#8d12c9" stroke-width="3.893909" stroke-opacity="1" stroke-miterlimit="4"/><g fill="#e4e2e1" fill-opacity="1"><g transform="translate(27.890909, 86.824822)"><g><path d="M 6.828125 0.265625 C 4.953125 0.265625 3.460938 -0.21875 2.359375 -1.1875 C 1.265625 -2.164062 0.71875 -3.46875 0.71875 -5.09375 C 0.71875 -5.25 0.738281 -5.523438 0.78125 -5.921875 L 0.921875 -6.9375 C 0.941406 -7.082031 1 -7.195312 1.09375 -7.28125 C 1.195312 -7.375 1.316406 -7.421875 1.453125 -7.421875 L 6.4375 -7.421875 C 6.570312 -7.421875 6.675781 -7.375 6.75 -7.28125 C 6.832031 -7.195312 6.859375 -7.082031 6.828125 -6.9375 L 6.765625 -6.203125 C 6.722656 -5.859375 6.765625 -5.578125 6.890625 -5.359375 C 7.023438 -5.140625 7.222656 -5.03125 7.484375 -5.03125 C 7.773438 -5.03125 8.019531 -5.148438 8.21875 -5.390625 C 8.414062 -5.628906 8.515625 -5.925781 8.515625 -6.28125 C 8.515625 -6.601562 8.351562 -6.941406 8.03125 -7.296875 C 7.71875 -7.648438 7.109375 -8.1875 6.203125 -8.90625 C 5.328125 -9.625 4.601562 -10.265625 4.03125 -10.828125 C 3.46875 -11.390625 2.976562 -12.078125 2.5625 -12.890625 C 2.144531 -13.710938 1.9375 -14.648438 1.9375 -15.703125 C 1.9375 -15.898438 1.957031 -16.238281 2 -16.71875 C 2.238281 -18.675781 3.046875 -20.253906 4.421875 -21.453125 C 5.804688 -22.660156 7.53125 -23.265625 9.59375 -23.265625 C 11.476562 -23.265625 12.960938 -22.757812 14.046875 -21.75 C 15.128906 -20.738281 15.671875 -19.378906 15.671875 -17.671875 C 15.671875 -17.472656 15.648438 -17.15625 15.609375 -16.71875 L 15.515625 -16 C 15.492188 -15.84375 15.429688 -15.722656 15.328125 -15.640625 C 15.234375 -15.554688 15.117188 -15.515625 14.984375 -15.515625 L 10.015625 -15.515625 C 9.890625 -15.515625 9.785156 -15.554688 9.703125 -15.640625 C 9.628906 -15.722656 9.601562 -15.84375 9.625 -16 L 9.71875 -16.859375 C 9.75 -17.179688 9.691406 -17.445312 9.546875 -17.65625 C 9.398438 -17.863281 9.195312 -17.96875 8.9375 -17.96875 C 8.632812 -17.96875 8.382812 -17.835938 8.1875 -17.578125 C 7.988281 -17.316406 7.890625 -16.96875 7.890625 -16.53125 C 7.890625 -16.15625 8.039062 -15.769531 8.34375 -15.375 C 8.65625 -14.976562 9.226562 -14.429688 10.0625 -13.734375 C 11.175781 -12.796875 12.023438 -12.035156 12.609375 -11.453125 C 13.203125 -10.867188 13.671875 -10.234375 14.015625 -9.546875 C 14.359375 -8.859375 14.53125 -8.078125 14.53125 -7.203125 C 14.53125 -7.023438 14.503906 -6.71875 14.453125 -6.28125 C 14.191406 -4.28125 13.363281 -2.6875 11.96875 -1.5 C 10.582031 -0.320312 8.867188 0.265625 6.828125 0.265625 Z M 6.828125 0.265625 "/></g></g></g><g fill="#e4e2e1" fill-opacity="1"><g transform="translate(42.642563, 86.824822)"><g><path d="M 15.1875 -18.203125 C 15.15625 -18.046875 15.09375 -17.925781 15 -17.84375 C 14.90625 -17.757812 14.78125 -17.71875 14.625 -17.71875 L 8.515625 -17.71875 C 8.398438 -17.71875 8.34375 -17.660156 8.34375 -17.546875 L 7.953125 -14.328125 C 7.910156 -14.210938 7.953125 -14.15625 8.078125 -14.15625 L 11.265625 -14.15625 C 11.421875 -14.15625 11.535156 -14.113281 11.609375 -14.03125 C 11.691406 -13.945312 11.722656 -13.828125 11.703125 -13.671875 L 11.171875 -9.359375 C 11.109375 -9.035156 10.921875 -8.875 10.609375 -8.875 L 7.421875 -8.875 C 7.316406 -8.875 7.265625 -8.816406 7.265625 -8.703125 L 6.875 -5.453125 C 6.820312 -5.347656 6.863281 -5.296875 7 -5.296875 L 13.109375 -5.296875 C 13.265625 -5.296875 13.378906 -5.25 13.453125 -5.15625 C 13.535156 -5.070312 13.5625 -4.953125 13.53125 -4.796875 L 13.015625 -0.5 C 12.992188 -0.34375 12.929688 -0.21875 12.828125 -0.125 C 12.734375 -0.0390625 12.609375 0 12.453125 0 L 0.65625 0 C 0.519531 0 0.414062 -0.0390625 0.34375 -0.125 C 0.269531 -0.21875 0.242188 -0.34375 0.265625 -0.5 L 2.953125 -22.515625 C 2.972656 -22.660156 3.03125 -22.773438 3.125 -22.859375 C 3.226562 -22.953125 3.347656 -23 3.484375 -23 L 15.28125 -23 C 15.4375 -23 15.550781 -22.953125 15.625 -22.859375 C 15.695312 -22.773438 15.722656 -22.660156 15.703125 -22.515625 Z M 15.1875 -18.203125 "/></g></g></g><g fill="#e4e2e1" fill-opacity="1"><g transform="translate(56.802839, 86.824822)"><g><path d="M 8.90625 0 C 8.644531 0 8.488281 -0.140625 8.4375 -0.421875 L 7.484375 -8.703125 C 7.484375 -8.796875 7.453125 -8.84375 7.390625 -8.84375 C 7.304688 -8.84375 7.265625 -8.785156 7.265625 -8.671875 L 6.25 -0.5 C 6.21875 -0.34375 6.15625 -0.21875 6.0625 -0.125 C 5.96875 -0.0390625 5.851562 0 5.71875 0 L 0.65625 0 C 0.519531 0 0.414062 -0.0390625 0.34375 -0.125 C 0.269531 -0.21875 0.242188 -0.34375 0.265625 -0.5 L 2.953125 -22.515625 C 2.972656 -22.660156 3.03125 -22.773438 3.125 -22.859375 C 3.226562 -22.953125 3.347656 -23 3.484375 -23 L 10.671875 -23 C 12.429688 -23 13.816406 -22.441406 14.828125 -21.328125 C 15.847656 -20.210938 16.359375 -18.734375 16.359375 -16.890625 C 16.359375 -16.359375 16.335938 -15.953125 16.296875 -15.671875 C 16.140625 -14.460938 15.796875 -13.382812 15.265625 -12.4375 C 14.742188 -11.488281 14.070312 -10.71875 13.25 -10.125 C 13.132812 -10.050781 13.097656 -9.972656 13.140625 -9.890625 L 14.5625 -0.5625 L 14.5625 -0.421875 C 14.5625 -0.296875 14.515625 -0.191406 14.421875 -0.109375 C 14.335938 -0.0351562 14.226562 0 14.09375 0 Z M 8.515625 -17.71875 C 8.398438 -17.71875 8.34375 -17.660156 8.34375 -17.546875 L 7.859375 -13.703125 C 7.859375 -13.585938 7.910156 -13.53125 8.015625 -13.53125 L 8.4375 -13.53125 C 8.96875 -13.53125 9.410156 -13.757812 9.765625 -14.21875 C 10.128906 -14.6875 10.3125 -15.328125 10.3125 -16.140625 C 10.3125 -16.640625 10.191406 -17.023438 9.953125 -17.296875 C 9.710938 -17.578125 9.382812 -17.71875 8.96875 -17.71875 Z M 8.515625 -17.71875 "/></g></g></g><g fill="#e4e2e1" fill-opacity="1"><g transform="translate(72.408711, 86.824822)"><g><path d="M 4.828125 0 C 4.523438 0 4.375 -0.140625 4.375 -0.421875 L 2.59375 -22.46875 C 2.59375 -22.820312 2.769531 -23 3.125 -23 L 8.609375 -23 C 8.910156 -23 9.050781 -22.847656 9.03125 -22.546875 L 9.03125 -10.75 C 9.007812 -10.675781 9.03125 -10.640625 9.09375 -10.640625 C 9.164062 -10.640625 9.210938 -10.675781 9.234375 -10.75 L 12 -22.546875 C 12.0625 -22.847656 12.242188 -23 12.546875 -23 L 17.875 -23 C 18.03125 -23 18.144531 -22.953125 18.21875 -22.859375 C 18.289062 -22.773438 18.296875 -22.644531 18.234375 -22.46875 L 11.015625 -0.421875 C 10.921875 -0.140625 10.722656 0 10.421875 0 Z M 4.828125 0 "/></g></g></g><g fill="#e4e2e1" fill-opacity="1"><g transform="translate(89.000224, 86.824822)"><g><path d="M 0.65625 0 C 0.519531 0 0.414062 -0.0390625 0.34375 -0.125 C 0.269531 -0.21875 0.242188 -0.34375 0.265625 -0.5 L 2.953125 -22.515625 C 2.972656 -22.660156 3.03125 -22.773438 3.125 -22.859375 C 3.226562 -22.953125 3.347656 -23 3.484375 -23 L 8.546875 -23 C 8.671875 -23 8.769531 -22.953125 8.84375 -22.859375 C 8.925781 -22.773438 8.957031 -22.660156 8.9375 -22.515625 L 6.25 -0.5 C 6.21875 -0.34375 6.15625 -0.21875 6.0625 -0.125 C 5.96875 -0.0390625 5.851562 0 5.71875 0 Z M 0.65625 0 "/></g></g></g><g fill="#e4e2e1" fill-opacity="1"><g transform="translate(96.655315, 86.824822)"><g><path d="M 6.9375 0.265625 C 5.03125 0.265625 3.519531 -0.257812 2.40625 -1.3125 C 1.300781 -2.363281 0.75 -3.800781 0.75 -5.625 C 0.75 -5.84375 0.773438 -6.210938 0.828125 -6.734375 L 2 -16.328125 C 2.269531 -18.453125 3.113281 -20.140625 4.53125 -21.390625 C 5.957031 -22.640625 7.722656 -23.265625 9.828125 -23.265625 C 11.734375 -23.265625 13.242188 -22.742188 14.359375 -21.703125 C 15.472656 -20.660156 16.03125 -19.234375 16.03125 -17.421875 C 16.03125 -17.222656 16.007812 -16.859375 15.96875 -16.328125 L 15.9375 -16.171875 C 15.914062 -16.015625 15.851562 -15.882812 15.75 -15.78125 C 15.65625 -15.6875 15.539062 -15.640625 15.40625 -15.640625 L 10.34375 -15.484375 C 10.019531 -15.484375 9.878906 -15.632812 9.921875 -15.9375 L 10.015625 -16.765625 C 10.066406 -17.128906 10.015625 -17.421875 9.859375 -17.640625 C 9.703125 -17.859375 9.484375 -17.96875 9.203125 -17.96875 C 8.890625 -17.96875 8.628906 -17.859375 8.421875 -17.640625 C 8.210938 -17.421875 8.085938 -17.128906 8.046875 -16.765625 L 6.765625 -6.203125 C 6.722656 -5.859375 6.769531 -5.578125 6.90625 -5.359375 C 7.050781 -5.140625 7.28125 -5.03125 7.59375 -5.03125 C 7.894531 -5.03125 8.148438 -5.132812 8.359375 -5.34375 C 8.566406 -5.550781 8.691406 -5.835938 8.734375 -6.203125 L 8.84375 -7.09375 C 8.863281 -7.25 8.921875 -7.363281 9.015625 -7.4375 C 9.117188 -7.519531 9.234375 -7.5625 9.359375 -7.5625 L 14.390625 -7.390625 C 14.546875 -7.390625 14.660156 -7.335938 14.734375 -7.234375 C 14.816406 -7.140625 14.84375 -7.019531 14.8125 -6.875 L 14.78125 -6.734375 C 14.519531 -4.609375 13.671875 -2.910156 12.234375 -1.640625 C 10.804688 -0.367188 9.039062 0.265625 6.9375 0.265625 Z M 6.9375 0.265625 "/></g></g></g><g fill="#e4e2e1" fill-opacity="1"><g transform="translate(111.834083, 86.824822)"><g><path d="M 0.65625 0 C 0.519531 0 0.414062 -0.0390625 0.34375 -0.125 C 0.269531 -0.21875 0.242188 -0.34375 0.265625 -0.5 L 2.953125 -22.515625 C 2.972656 -22.660156 3.03125 -22.773438 3.125 -22.859375 C 3.226562 -22.953125 3.347656 -23 3.484375 -23 L 8.546875 -23 C 8.671875 -23 8.769531 -22.953125 8.84375 -22.859375 C 8.925781 -22.773438 8.957031 -22.660156 8.9375 -22.515625 L 6.25 -0.5 C 6.21875 -0.34375 6.15625 -0.21875 6.0625 -0.125 C 5.96875 -0.0390625 5.851562 0 5.71875 0 Z M 0.65625 0 "/></g></g></g><g fill="#e4e2e1" fill-opacity="1"><g transform="translate(119.489174, 86.824822)"><g><path d="M 7.03125 0.265625 C 5.082031 0.265625 3.546875 -0.265625 2.421875 -1.328125 C 1.304688 -2.390625 0.75 -3.832031 0.75 -5.65625 C 0.75 -5.875 0.773438 -6.242188 0.828125 -6.765625 L 2 -16.234375 C 2.269531 -18.378906 3.117188 -20.085938 4.546875 -21.359375 C 5.984375 -22.628906 7.773438 -23.265625 9.921875 -23.265625 C 11.847656 -23.265625 13.375 -22.734375 14.5 -21.671875 C 15.632812 -20.609375 16.203125 -19.164062 16.203125 -17.34375 C 16.203125 -17.125 16.179688 -16.753906 16.140625 -16.234375 L 14.984375 -6.765625 C 14.722656 -4.617188 13.867188 -2.910156 12.421875 -1.640625 C 10.972656 -0.367188 9.175781 0.265625 7.03125 0.265625 Z M 7.6875 -5.03125 C 8.019531 -5.03125 8.300781 -5.160156 8.53125 -5.421875 C 8.757812 -5.679688 8.90625 -6.039062 8.96875 -6.5 L 10.1875 -16.5 C 10.226562 -16.957031 10.171875 -17.316406 10.015625 -17.578125 C 9.867188 -17.835938 9.628906 -17.96875 9.296875 -17.96875 C 8.953125 -17.96875 8.660156 -17.835938 8.421875 -17.578125 C 8.191406 -17.316406 8.054688 -16.957031 8.015625 -16.5 L 6.796875 -6.5 C 6.773438 -6.414062 6.765625 -6.296875 6.765625 -6.140625 C 6.765625 -5.796875 6.847656 -5.523438 7.015625 -5.328125 C 7.179688 -5.128906 7.40625 -5.03125 7.6875 -5.03125 Z M 7.6875 -5.03125 "/></g></g></g><g fill="#e4e2e1" fill-opacity="1"><g transform="translate(134.897919, 86.824822)"><g><path d="M 6.828125 0.265625 C 4.953125 0.265625 3.460938 -0.21875 2.359375 -1.1875 C 1.265625 -2.164062 0.71875 -3.46875 0.71875 -5.09375 C 0.71875 -5.25 0.738281 -5.523438 0.78125 -5.921875 L 0.921875 -6.9375 C 0.941406 -7.082031 1 -7.195312 1.09375 -7.28125 C 1.195312 -7.375 1.316406 -7.421875 1.453125 -7.421875 L 6.4375 -7.421875 C 6.570312 -7.421875 6.675781 -7.375 6.75 -7.28125 C 6.832031 -7.195312 6.859375 -7.082031 6.828125 -6.9375 L 6.765625 -6.203125 C 6.722656 -5.859375 6.765625 -5.578125 6.890625 -5.359375 C 7.023438 -5.140625 7.222656 -5.03125 7.484375 -5.03125 C 7.773438 -5.03125 8.019531 -5.148438 8.21875 -5.390625 C 8.414062 -5.628906 8.515625 -5.925781 8.515625 -6.28125 C 8.515625 -6.601562 8.351562 -6.941406 8.03125 -7.296875 C 7.71875 -7.648438 7.109375 -8.1875 6.203125 -8.90625 C 5.328125 -9.625 4.601562 -10.265625 4.03125 -10.828125 C 3.46875 -11.390625 2.976562 -12.078125 2.5625 -12.890625 C 2.144531 -13.710938 1.9375 -14.648438 1.9375 -15.703125 C 1.9375 -15.898438 1.957031 -16.238281 2 -16.71875 C 2.238281 -18.675781 3.046875 -20.253906 4.421875 -21.453125 C 5.804688 -22.660156 7.53125 -23.265625 9.59375 -23.265625 C 11.476562 -23.265625 12.960938 -22.757812 14.046875 -21.75 C 15.128906 -20.738281 15.671875 -19.378906 15.671875 -17.671875 C 15.671875 -17.472656 15.648438 -17.15625 15.609375 -16.71875 L 15.515625 -16 C 15.492188 -15.84375 15.429688 -15.722656 15.328125 -15.640625 C 15.234375 -15.554688 15.117188 -15.515625 14.984375 -15.515625 L 10.015625 -15.515625 C 9.890625 -15.515625 9.785156 -15.554688 9.703125 -15.640625 C 9.628906 -15.722656 9.601562 -15.84375 9.625 -16 L 9.71875 -16.859375 C 9.75 -17.179688 9.691406 -17.445312 9.546875 -17.65625 C 9.398438 -17.863281 9.195312 -17.96875 8.9375 -17.96875 C 8.632812 -17.96875 8.382812 -17.835938 8.1875 -17.578125 C 7.988281 -17.316406 7.890625 -16.96875 7.890625 -16.53125 C 7.890625 -16.15625 8.039062 -15.769531 8.34375 -15.375 C 8.65625 -14.976562 9.226562 -14.429688 10.0625 -13.734375 C 11.175781 -12.796875 12.023438 -12.035156 12.609375 -11.453125 C 13.203125 -10.867188 13.671875 -10.234375 14.015625 -9.546875 C 14.359375 -8.859375 14.53125 -8.078125 14.53125 -7.203125 C 14.53125 -7.023438 14.503906 -6.71875 14.453125 -6.28125 C 14.191406 -4.28125 13.363281 -2.6875 11.96875 -1.5 C 10.582031 -0.320312 8.867188 0.265625 6.828125 0.265625 Z M 6.828125 0.265625 "/></g></g></g><g fill="#e4e2e1" fill-opacity="1"><g transform="translate(149.649574, 86.824822)"><g/></g></g><g fill="#e4e2e1" fill-opacity="1"><g transform="translate(156.023345, 86.824822)"><g><path d="M 9.71875 -23.265625 C 11.625 -23.265625 13.117188 -22.710938 14.203125 -21.609375 C 15.296875 -20.503906 15.84375 -19.007812 15.84375 -17.125 C 15.84375 -16.851562 15.816406 -16.457031 15.765625 -15.9375 L 14.65625 -7.0625 C 14.476562 -5.507812 13.984375 -4.144531 13.171875 -2.96875 C 12.359375 -1.800781 11.320312 -0.941406 10.0625 -0.390625 C 9.988281 -0.347656 9.929688 -0.285156 9.890625 -0.203125 L 9.59375 2.359375 C 9.570312 2.515625 9.507812 2.632812 9.40625 2.71875 C 9.3125 2.8125 9.1875 2.859375 9.03125 2.859375 L 4.015625 2.859375 C 3.859375 2.859375 3.738281 2.8125 3.65625 2.71875 C 3.582031 2.632812 3.554688 2.515625 3.578125 2.359375 L 3.90625 -0.203125 C 3.90625 -0.285156 3.875 -0.347656 3.8125 -0.390625 C 2.84375 -0.878906 2.09375 -1.597656 1.5625 -2.546875 C 1.039062 -3.492188 0.78125 -4.617188 0.78125 -5.921875 C 0.78125 -6.160156 0.804688 -6.539062 0.859375 -7.0625 L 1.96875 -15.9375 C 2.144531 -17.382812 2.582031 -18.660156 3.28125 -19.765625 C 3.988281 -20.867188 4.898438 -21.726562 6.015625 -22.34375 C 7.128906 -22.957031 8.363281 -23.265625 9.71875 -23.265625 Z M 6.765625 -6.40625 C 6.722656 -5.988281 6.765625 -5.65625 6.890625 -5.40625 C 7.023438 -5.15625 7.222656 -5.03125 7.484375 -5.03125 C 7.773438 -5.03125 8.023438 -5.15625 8.234375 -5.40625 C 8.441406 -5.65625 8.566406 -5.988281 8.609375 -6.40625 L 9.859375 -16.59375 C 9.898438 -17.007812 9.851562 -17.34375 9.71875 -17.59375 C 9.59375 -17.84375 9.390625 -17.96875 9.109375 -17.96875 C 8.816406 -17.96875 8.570312 -17.84375 8.375 -17.59375 C 8.175781 -17.34375 8.054688 -17.007812 8.015625 -16.59375 Z M 6.765625 -6.40625 "/></g></g></g><g fill="#e4e2e1" fill-opacity="1"><g transform="translate(171.10355, 86.824822)"><g><path d="M 7 0.265625 C 5.113281 0.265625 3.625 -0.269531 2.53125 -1.34375 C 1.4375 -2.414062 0.890625 -3.863281 0.890625 -5.6875 C 0.890625 -5.925781 0.910156 -6.304688 0.953125 -6.828125 L 2.890625 -22.515625 C 2.910156 -22.660156 2.96875 -22.773438 3.0625 -22.859375 C 3.164062 -22.953125 3.285156 -23 3.421875 -23 L 8.484375 -23 C 8.609375 -23 8.707031 -22.953125 8.78125 -22.859375 C 8.863281 -22.773438 8.894531 -22.660156 8.875 -22.515625 L 6.90625 -6.25 C 6.851562 -5.875 6.894531 -5.578125 7.03125 -5.359375 C 7.164062 -5.140625 7.375 -5.03125 7.65625 -5.03125 C 7.9375 -5.03125 8.171875 -5.140625 8.359375 -5.359375 C 8.546875 -5.578125 8.660156 -5.875 8.703125 -6.25 L 10.71875 -22.515625 C 10.738281 -22.660156 10.789062 -22.773438 10.875 -22.859375 C 10.96875 -22.953125 11.085938 -23 11.234375 -23 L 16.265625 -23 C 16.421875 -23 16.535156 -22.953125 16.609375 -22.859375 C 16.679688 -22.773438 16.707031 -22.660156 16.6875 -22.515625 L 14.75 -6.828125 C 14.570312 -5.429688 14.132812 -4.195312 13.4375 -3.125 C 12.738281 -2.050781 11.828125 -1.21875 10.703125 -0.625 C 9.585938 -0.03125 8.351562 0.265625 7 0.265625 Z M 7 0.265625 "/></g></g></g><g fill="#e4e2e1" fill-opacity="1"><g transform="translate(186.446594, 86.824822)"><g><path d="M 15.1875 -18.203125 C 15.15625 -18.046875 15.09375 -17.925781 15 -17.84375 C 14.90625 -17.757812 14.78125 -17.71875 14.625 -17.71875 L 8.515625 -17.71875 C 8.398438 -17.71875 8.34375 -17.660156 8.34375 -17.546875 L 7.953125 -14.328125 C 7.910156 -14.210938 7.953125 -14.15625 8.078125 -14.15625 L 11.265625 -14.15625 C 11.421875 -14.15625 11.535156 -14.113281 11.609375 -14.03125 C 11.691406 -13.945312 11.722656 -13.828125 11.703125 -13.671875 L 11.171875 -9.359375 C 11.109375 -9.035156 10.921875 -8.875 10.609375 -8.875 L 7.421875 -8.875 C 7.316406 -8.875 7.265625 -8.816406 7.265625 -8.703125 L 6.875 -5.453125 C 6.820312 -5.347656 6.863281 -5.296875 7 -5.296875 L 13.109375 -5.296875 C 13.265625 -5.296875 13.378906 -5.25 13.453125 -5.15625 C 13.535156 -5.070312 13.5625 -4.953125 13.53125 -4.796875 L 13.015625 -0.5 C 12.992188 -0.34375 12.929688 -0.21875 12.828125 -0.125 C 12.734375 -0.0390625 12.609375 0 12.453125 0 L 0.65625 0 C 0.519531 0 0.414062 -0.0390625 0.34375 -0.125 C 0.269531 -0.21875 0.242188 -0.34375 0.265625 -0.5 L 2.953125 -22.515625 C 2.972656 -22.660156 3.03125 -22.773438 3.125 -22.859375 C 3.226562 -22.953125 3.347656 -23 3.484375 -23 L 15.28125 -23 C 15.4375 -23 15.550781 -22.953125 15.625 -22.859375 C 15.695312 -22.773438 15.722656 -22.660156 15.703125 -22.515625 Z M 15.1875 -18.203125 "/></g></g></g><g fill="#e4e2e1" fill-opacity="1"><g transform="translate(200.606869, 86.824822)"><g/></g></g><g fill="#e4e2e1" fill-opacity="1"><g transform="translate(206.98064, 86.824822)"><g><path d="M 7.03125 0.265625 C 5.082031 0.265625 3.546875 -0.265625 2.421875 -1.328125 C 1.304688 -2.390625 0.75 -3.832031 0.75 -5.65625 C 0.75 -5.875 0.773438 -6.242188 0.828125 -6.765625 L 2 -16.234375 C 2.269531 -18.378906 3.117188 -20.085938 4.546875 -21.359375 C 5.984375 -22.628906 7.773438 -23.265625 9.921875 -23.265625 C 11.847656 -23.265625 13.375 -22.734375 14.5 -21.671875 C 15.632812 -20.609375 16.203125 -19.164062 16.203125 -17.34375 C 16.203125 -17.125 16.179688 -16.753906 16.140625 -16.234375 L 14.984375 -6.765625 C 14.722656 -4.617188 13.867188 -2.910156 12.421875 -1.640625 C 10.972656 -0.367188 9.175781 0.265625 7.03125 0.265625 Z M 7.6875 -5.03125 C 8.019531 -5.03125 8.300781 -5.160156 8.53125 -5.421875 C 8.757812 -5.679688 8.90625 -6.039062 8.96875 -6.5 L 10.1875 -16.5 C 10.226562 -16.957031 10.171875 -17.316406 10.015625 -17.578125 C 9.867188 -17.835938 9.628906 -17.96875 9.296875 -17.96875 C 8.953125 -17.96875 8.660156 -17.835938 8.421875 -17.578125 C 8.191406 -17.316406 8.054688 -16.957031 8.015625 -16.5 L 6.796875 -6.5 C 6.773438 -6.414062 6.765625 -6.296875 6.765625 -6.140625 C 6.765625 -5.796875 6.847656 -5.523438 7.015625 -5.328125 C 7.179688 -5.128906 7.40625 -5.03125 7.6875 -5.03125 Z M 7.6875 -5.03125 "/></g></g></g><g fill="#e4e2e1" fill-opacity="1"><g transform="translate(222.389397, 86.824822)"><g><path d="M 15.1875 -18.203125 C 15.15625 -18.046875 15.09375 -17.925781 15 -17.84375 C 14.90625 -17.757812 14.78125 -17.71875 14.625 -17.71875 L 8.515625 -17.71875 C 8.398438 -17.71875 8.34375 -17.660156 8.34375 -17.546875 L 7.953125 -14.328125 C 7.910156 -14.210938 7.953125 -14.15625 8.078125 -14.15625 L 11.265625 -14.15625 C 11.421875 -14.15625 11.535156 -14.113281 11.609375 -14.03125 C 11.691406 -13.945312 11.722656 -13.828125 11.703125 -13.671875 L 11.171875 -9.359375 C 11.109375 -9.035156 10.921875 -8.875 10.609375 -8.875 L 7.421875 -8.875 C 7.316406 -8.875 7.265625 -8.816406 7.265625 -8.703125 L 6.25 -0.5 C 6.21875 -0.34375 6.15625 -0.21875 6.0625 -0.125 C 5.96875 -0.0390625 5.851562 0 5.71875 0 L 0.65625 0 C 0.519531 0 0.414062 -0.0390625 0.34375 -0.125 C 0.269531 -0.21875 0.242188 -0.34375 0.265625 -0.5 L 2.953125 -22.515625 C 2.972656 -22.660156 3.03125 -22.773438 3.125 -22.859375 C 3.226562 -22.953125 3.347656 -23 3.484375 -23 L 15.28125 -23 C 15.4375 -23 15.550781 -22.953125 15.625 -22.859375 C 15.695312 -22.773438 15.722656 -22.660156 15.703125 -22.515625 Z M 15.1875 -18.203125 "/></g></g></g><g fill="#e4e2e1" fill-opacity="1"><g transform="translate(236.155432, 86.824822)"><g><path d="M 8.90625 0 C 8.644531 0 8.488281 -0.140625 8.4375 -0.421875 L 7.484375 -8.703125 C 7.484375 -8.796875 7.453125 -8.84375 7.390625 -8.84375 C 7.304688 -8.84375 7.265625 -8.785156 7.265625 -8.671875 L 6.25 -0.5 C 6.21875 -0.34375 6.15625 -0.21875 6.0625 -0.125 C 5.96875 -0.0390625 5.851562 0 5.71875 0 L 0.65625 0 C 0.519531 0 0.414062 -0.0390625 0.34375 -0.125 C 0.269531 -0.21875 0.242188 -0.34375 0.265625 -0.5 L 2.953125 -22.515625 C 2.972656 -22.660156 3.03125 -22.773438 3.125 -22.859375 C 3.226562 -22.953125 3.347656 -23 3.484375 -23 L 10.671875 -23 C 12.429688 -23 13.816406 -22.441406 14.828125 -21.328125 C 15.847656 -20.210938 16.359375 -18.734375 16.359375 -16.890625 C 16.359375 -16.359375 16.335938 -15.953125 16.296875 -15.671875 C 16.140625 -14.460938 15.796875 -13.382812 15.265625 -12.4375 C 14.742188 -11.488281 14.070312 -10.71875 13.25 -10.125 C 13.132812 -10.050781 13.097656 -9.972656 13.140625 -9.890625 L 14.5625 -0.5625 L 14.5625 -0.421875 C 14.5625 -0.296875 14.515625 -0.191406 14.421875 -0.109375 C 14.335938 -0.0351562 14.226562 0 14.09375 0 Z M 8.515625 -17.71875 C 8.398438 -17.71875 8.34375 -17.660156 8.34375 -17.546875 L 7.859375 -13.703125 C 7.859375 -13.585938 7.910156 -13.53125 8.015625 -13.53125 L 8.4375 -13.53125 C 8.96875 -13.53125 9.410156 -13.757812 9.765625 -14.21875 C 10.128906 -14.6875 10.3125 -15.328125 10.3125 -16.140625 C 10.3125 -16.640625 10.191406 -17.023438 9.953125 -17.296875 C 9.710938 -17.578125 9.382812 -17.71875 8.96875 -17.71875 Z M 8.515625 -17.71875 "/></g></g></g><g fill="#e4e2e1" fill-opacity="1"><g transform="translate(251.761303, 86.824822)"><g><path d="M 15.1875 -18.203125 C 15.15625 -18.046875 15.09375 -17.925781 15 -17.84375 C 14.90625 -17.757812 14.78125 -17.71875 14.625 -17.71875 L 8.515625 -17.71875 C 8.398438 -17.71875 8.34375 -17.660156 8.34375 -17.546875 L 7.953125 -14.328125 C 7.910156 -14.210938 7.953125 -14.15625 8.078125 -14.15625 L 11.265625 -14.15625 C 11.421875 -14.15625 11.535156 -14.113281 11.609375 -14.03125 C 11.691406 -13.945312 11.722656 -13.828125 11.703125 -13.671875 L 11.171875 -9.359375 C 11.109375 -9.035156 10.921875 -8.875 10.609375 -8.875 L 7.421875 -8.875 C 7.316406 -8.875 7.265625 -8.816406 7.265625 -8.703125 L 6.875 -5.453125 C 6.820312 -5.347656 6.863281 -5.296875 7 -5.296875 L 13.109375 -5.296875 C 13.265625 -5.296875 13.378906 -5.25 13.453125 -5.15625 C 13.535156 -5.070312 13.5625 -4.953125 13.53125 -4.796875 L 13.015625 -0.5 C 12.992188 -0.34375 12.929688 -0.21875 12.828125 -0.125 C 12.734375 -0.0390625 12.609375 0 12.453125 0 L 0.65625 0 C 0.519531 0 0.414062 -0.0390625 0.34375 -0.125 C 0.269531 -0.21875 0.242188 -0.34375 0.265625 -0.5 L 2.953125 -22.515625 C 2.972656 -22.660156 3.03125 -22.773438 3.125 -22.859375 C 3.226562 -22.953125 3.347656 -23 3.484375 -23 L 15.28125 -23 C 15.4375 -23 15.550781 -22.953125 15.625 -22.859375 C 15.695312 -22.773438 15.722656 -22.660156 15.703125 -22.515625 Z M 15.1875 -18.203125 "/></g></g></g><g fill="#e4e2e1" fill-opacity="1"><g transform="translate(265.921568, 86.824822)"><g><path d="M 6.9375 0.265625 C 5.03125 0.265625 3.519531 -0.257812 2.40625 -1.3125 C 1.300781 -2.363281 0.75 -3.800781 0.75 -5.625 C 0.75 -5.84375 0.773438 -6.210938 0.828125 -6.734375 L 2 -16.328125 C 2.269531 -18.453125 3.113281 -20.140625 4.53125 -21.390625 C 5.957031 -22.640625 7.722656 -23.265625 9.828125 -23.265625 C 11.734375 -23.265625 13.242188 -22.742188 14.359375 -21.703125 C 15.472656 -20.660156 16.03125 -19.234375 16.03125 -17.421875 C 16.03125 -17.222656 16.007812 -16.859375 15.96875 -16.328125 L 15.9375 -16.171875 C 15.914062 -16.015625 15.851562 -15.882812 15.75 -15.78125 C 15.65625 -15.6875 15.539062 -15.640625 15.40625 -15.640625 L 10.34375 -15.484375 C 10.019531 -15.484375 9.878906 -15.632812 9.921875 -15.9375 L 10.015625 -16.765625 C 10.066406 -17.128906 10.015625 -17.421875 9.859375 -17.640625 C 9.703125 -17.859375 9.484375 -17.96875 9.203125 -17.96875 C 8.890625 -17.96875 8.628906 -17.859375 8.421875 -17.640625 C 8.210938 -17.421875 8.085938 -17.128906 8.046875 -16.765625 L 6.765625 -6.203125 C 6.722656 -5.859375 6.769531 -5.578125 6.90625 -5.359375 C 7.050781 -5.140625 7.28125 -5.03125 7.59375 -5.03125 C 7.894531 -5.03125 8.148438 -5.132812 8.359375 -5.34375 C 8.566406 -5.550781 8.691406 -5.835938 8.734375 -6.203125 L 8.84375 -7.09375 C 8.863281 -7.25 8.921875 -7.363281 9.015625 -7.4375 C 9.117188 -7.519531 9.234375 -7.5625 9.359375 -7.5625 L 14.390625 -7.390625 C 14.546875 -7.390625 14.660156 -7.335938 14.734375 -7.234375 C 14.816406 -7.140625 14.84375 -7.019531 14.8125 -6.875 L 14.78125 -6.734375 C 14.519531 -4.609375 13.671875 -2.910156 12.234375 -1.640625 C 10.804688 -0.367188 9.039062 0.265625 6.9375 0.265625 Z M 6.9375 0.265625 "/></g></g></g><g fill="#e4e2e1" fill-opacity="1"><g transform="translate(281.100326, 86.824822)"><g><path d="M 15.1875 -18.203125 C 15.15625 -18.046875 15.09375 -17.925781 15 -17.84375 C 14.90625 -17.757812 14.78125 -17.71875 14.625 -17.71875 L 8.515625 -17.71875 C 8.398438 -17.71875 8.34375 -17.660156 8.34375 -17.546875 L 7.953125 -14.328125 C 7.910156 -14.210938 7.953125 -14.15625 8.078125 -14.15625 L 11.265625 -14.15625 C 11.421875 -14.15625 11.535156 -14.113281 11.609375 -14.03125 C 11.691406 -13.945312 11.722656 -13.828125 11.703125 -13.671875 L 11.171875 -9.359375 C 11.109375 -9.035156 10.921875 -8.875 10.609375 -8.875 L 7.421875 -8.875 C 7.316406 -8.875 7.265625 -8.816406 7.265625 -8.703125 L 6.875 -5.453125 C 6.820312 -5.347656 6.863281 -5.296875 7 -5.296875 L 13.109375 -5.296875 C 13.265625 -5.296875 13.378906 -5.25 13.453125 -5.15625 C 13.535156 -5.070312 13.5625 -4.953125 13.53125 -4.796875 L 13.015625 -0.5 C 12.992188 -0.34375 12.929688 -0.21875 12.828125 -0.125 C 12.734375 -0.0390625 12.609375 0 12.453125 0 L 0.65625 0 C 0.519531 0 0.414062 -0.0390625 0.34375 -0.125 C 0.269531 -0.21875 0.242188 -0.34375 0.265625 -0.5 L 2.953125 -22.515625 C 2.972656 -22.660156 3.03125 -22.773438 3.125 -22.859375 C 3.226562 -22.953125 3.347656 -23 3.484375 -23 L 15.28125 -23 C 15.4375 -23 15.550781 -22.953125 15.625 -22.859375 C 15.695312 -22.773438 15.722656 -22.660156 15.703125 -22.515625 Z M 15.1875 -18.203125 "/></g></g></g><g fill="#e4e2e1" fill-opacity="1"><g transform="translate(295.260612, 86.824822)"><g/></g></g><g fill="#e4e2e1" fill-opacity="1"><g transform="translate(301.634372, 86.824822)"><g><path d="M 15.1875 -18.203125 C 15.15625 -18.046875 15.09375 -17.925781 15 -17.84375 C 14.90625 -17.757812 14.78125 -17.71875 14.625 -17.71875 L 8.515625 -17.71875 C 8.398438 -17.71875 8.34375 -17.660156 8.34375 -17.546875 L 7.953125 -14.328125 C 7.910156 -14.210938 7.953125 -14.15625 8.078125 -14.15625 L 11.265625 -14.15625 C 11.421875 -14.15625 11.535156 -14.113281 11.609375 -14.03125 C 11.691406 -13.945312 11.722656 -13.828125 11.703125 -13.671875 L 11.171875 -9.359375 C 11.109375 -9.035156 10.921875 -8.875 10.609375 -8.875 L 7.421875 -8.875 C 7.316406 -8.875 7.265625 -8.816406 7.265625 -8.703125 L 6.875 -5.453125 C 6.820312 -5.347656 6.863281 -5.296875 7 -5.296875 L 13.109375 -5.296875 C 13.265625 -5.296875 13.378906 -5.25 13.453125 -5.15625 C 13.535156 -5.070312 13.5625 -4.953125 13.53125 -4.796875 L 13.015625 -0.5 C 12.992188 -0.34375 12.929688 -0.21875 12.828125 -0.125 C 12.734375 -0.0390625 12.609375 0 12.453125 0 L 0.65625 0 C 0.519531 0 0.414062 -0.0390625 0.34375 -0.125 C 0.269531 -0.21875 0.242188 -0.34375 0.265625 -0.5 L 2.953125 -22.515625 C 2.972656 -22.660156 3.03125 -22.773438 3.125 -22.859375 C 3.226562 -22.953125 3.347656 -23 3.484375 -23 L 15.28125 -23 C 15.4375 -23 15.550781 -22.953125 15.625 -22.859375 C 15.695312 -22.773438 15.722656 -22.660156 15.703125 -22.515625 Z M 15.1875 -18.203125 "/></g></g></g><g fill="#e4e2e1" fill-opacity="1"><g transform="translate(315.794659, 86.824822)"><g><path d="M 0.65625 0 C 0.519531 0 0.414062 -0.0390625 0.34375 -0.125 C 0.269531 -0.21875 0.242188 -0.34375 0.265625 -0.5 L 2.953125 -22.515625 C 2.972656 -22.660156 3.03125 -22.773438 3.125 -22.859375 C 3.226562 -22.953125 3.347656 -23 3.484375 -23 L 8.546875 -23 C 8.671875 -23 8.769531 -22.953125 8.84375 -22.859375 C 8.925781 -22.773438 8.957031 -22.660156 8.9375 -22.515625 L 6.875 -5.453125 C 6.820312 -5.347656 6.863281 -5.296875 7 -5.296875 L 13.25 -5.296875 C 13.394531 -5.296875 13.503906 -5.25 13.578125 -5.15625 C 13.660156 -5.070312 13.691406 -4.953125 13.671875 -4.796875 L 13.140625 -0.5 C 13.078125 -0.164062 12.890625 0 12.578125 0 Z M 0.65625 0 "/></g></g></g><g fill="#e4e2e1" fill-opacity="1"><g transform="translate(330.020648, 86.824822)"><g/></g></g><g fill="#e4e2e1" fill-opacity="1"><g transform="translate(336.39443, 86.824822)"><g><path d="M 6.9375 0.265625 C 5.03125 0.265625 3.519531 -0.257812 2.40625 -1.3125 C 1.300781 -2.363281 0.75 -3.800781 0.75 -5.625 C 0.75 -5.84375 0.773438 -6.210938 0.828125 -6.734375 L 2 -16.328125 C 2.269531 -18.453125 3.113281 -20.140625 4.53125 -21.390625 C 5.957031 -22.640625 7.722656 -23.265625 9.828125 -23.265625 C 11.734375 -23.265625 13.242188 -22.742188 14.359375 -21.703125 C 15.472656 -20.660156 16.03125 -19.234375 16.03125 -17.421875 C 16.03125 -17.222656 16.007812 -16.859375 15.96875 -16.328125 L 15.9375 -16.171875 C 15.914062 -16.015625 15.851562 -15.882812 15.75 -15.78125 C 15.65625 -15.6875 15.539062 -15.640625 15.40625 -15.640625 L 10.34375 -15.484375 C 10.019531 -15.484375 9.878906 -15.632812 9.921875 -15.9375 L 10.015625 -16.765625 C 10.066406 -17.128906 10.015625 -17.421875 9.859375 -17.640625 C 9.703125 -17.859375 9.484375 -17.96875 9.203125 -17.96875 C 8.890625 -17.96875 8.628906 -17.859375 8.421875 -17.640625 C 8.210938 -17.421875 8.085938 -17.128906 8.046875 -16.765625 L 6.765625 -6.203125 C 6.722656 -5.859375 6.769531 -5.578125 6.90625 -5.359375 C 7.050781 -5.140625 7.28125 -5.03125 7.59375 -5.03125 C 7.894531 -5.03125 8.148438 -5.132812 8.359375 -5.34375 C 8.566406 -5.550781 8.691406 -5.835938 8.734375 -6.203125 L 8.84375 -7.09375 C 8.863281 -7.25 8.921875 -7.363281 9.015625 -7.4375 C 9.117188 -7.519531 9.234375 -7.5625 9.359375 -7.5625 L 14.390625 -7.390625 C 14.546875 -7.390625 14.660156 -7.335938 14.734375 -7.234375 C 14.816406 -7.140625 14.84375 -7.019531 14.8125 -6.875 L 14.78125 -6.734375 C 14.519531 -4.609375 13.671875 -2.910156 12.234375 -1.640625 C 10.804688 -0.367188 9.039062 0.265625 6.9375 0.265625 Z M 6.9375 0.265625 "/></g></g></g><g fill="#e4e2e1" fill-opacity="1"><g transform="translate(351.573187, 86.824822)"><g><path d="M 0.65625 0 C 0.519531 0 0.414062 -0.0390625 0.34375 -0.125 C 0.269531 -0.21875 0.242188 -0.34375 0.265625 -0.5 L 2.953125 -22.515625 C 2.972656 -22.660156 3.03125 -22.773438 3.125 -22.859375 C 3.226562 -22.953125 3.347656 -23 3.484375 -23 L 8.546875 -23 C 8.671875 -23 8.769531 -22.953125 8.84375 -22.859375 C 8.925781 -22.773438 8.957031 -22.660156 8.9375 -22.515625 L 6.875 -5.453125 C 6.820312 -5.347656 6.863281 -5.296875 7 -5.296875 L 13.25 -5.296875 C 13.394531 -5.296875 13.503906 -5.25 13.578125 -5.15625 C 13.660156 -5.070312 13.691406 -4.953125 13.671875 -4.796875 L 13.140625 -0.5 C 13.078125 -0.164062 12.890625 0 12.578125 0 Z M 0.65625 0 "/></g></g></g><g fill="#e4e2e1" fill-opacity="1"><g transform="translate(365.799176, 86.824822)"><g><path d="M 7 0.265625 C 5.113281 0.265625 3.625 -0.269531 2.53125 -1.34375 C 1.4375 -2.414062 0.890625 -3.863281 0.890625 -5.6875 C 0.890625 -5.925781 0.910156 -6.304688 0.953125 -6.828125 L 2.890625 -22.515625 C 2.910156 -22.660156 2.96875 -22.773438 3.0625 -22.859375 C 3.164062 -22.953125 3.285156 -23 3.421875 -23 L 8.484375 -23 C 8.609375 -23 8.707031 -22.953125 8.78125 -22.859375 C 8.863281 -22.773438 8.894531 -22.660156 8.875 -22.515625 L 6.90625 -6.25 C 6.851562 -5.875 6.894531 -5.578125 7.03125 -5.359375 C 7.164062 -5.140625 7.375 -5.03125 7.65625 -5.03125 C 7.9375 -5.03125 8.171875 -5.140625 8.359375 -5.359375 C 8.546875 -5.578125 8.660156 -5.875 8.703125 -6.25 L 10.71875 -22.515625 C 10.738281 -22.660156 10.789062 -22.773438 10.875 -22.859375 C 10.96875 -22.953125 11.085938 -23 11.234375 -23 L 16.265625 -23 C 16.421875 -23 16.535156 -22.953125 16.609375 -22.859375 C 16.679688 -22.773438 16.707031 -22.660156 16.6875 -22.515625 L 14.75 -6.828125 C 14.570312 -5.429688 14.132812 -4.195312 13.4375 -3.125 C 12.738281 -2.050781 11.828125 -1.21875 10.703125 -0.625 C 9.585938 -0.03125 8.351562 0.265625 7 0.265625 Z M 7 0.265625 "/></g></g></g><g fill="#e4e2e1" fill-opacity="1"><g transform="translate(381.142219, 86.824822)"><g><path d="M 15.078125 -6.609375 C 14.835938 -4.484375 14 -2.847656 12.5625 -1.703125 C 11.132812 -0.566406 9.410156 0 7.390625 0 L 0.65625 0 C 0.519531 0 0.414062 -0.0390625 0.34375 -0.125 C 0.269531 -0.21875 0.242188 -0.34375 0.265625 -0.5 L 2.953125 -22.515625 C 2.972656 -22.660156 3.03125 -22.773438 3.125 -22.859375 C 3.226562 -22.953125 3.347656 -23 3.484375 -23 L 9.265625 -23 C 11.367188 -23 13.003906 -22.554688 14.171875 -21.671875 C 15.347656 -20.785156 15.9375 -19.441406 15.9375 -17.640625 C 15.9375 -17.421875 15.914062 -17.050781 15.875 -16.53125 C 15.613281 -14.488281 14.8125 -12.976562 13.46875 -12 C 13.34375 -11.925781 13.3125 -11.859375 13.375 -11.796875 C 14.550781 -10.785156 15.140625 -9.375 15.140625 -7.5625 C 15.140625 -7.363281 15.117188 -7.046875 15.078125 -6.609375 Z M 8.515625 -17.71875 C 8.398438 -17.71875 8.34375 -17.660156 8.34375 -17.546875 L 7.921875 -14.1875 C 7.921875 -14.082031 7.960938 -14.03125 8.046875 -14.03125 L 8.25 -14.03125 C 9.1875 -14.03125 9.742188 -14.644531 9.921875 -15.875 L 9.953125 -16.296875 C 9.953125 -17.242188 9.535156 -17.71875 8.703125 -17.71875 Z M 7.5625 -5.296875 C 8.039062 -5.296875 8.4375 -5.523438 8.75 -5.984375 C 9.070312 -6.441406 9.234375 -7.097656 9.234375 -7.953125 C 9.234375 -8.453125 9.132812 -8.851562 8.9375 -9.15625 C 8.738281 -9.46875 8.460938 -9.625 8.109375 -9.625 L 7.53125 -9.625 C 7.414062 -9.625 7.359375 -9.570312 7.359375 -9.46875 L 6.875 -5.453125 C 6.820312 -5.347656 6.863281 -5.296875 7 -5.296875 Z M 7.5625 -5.296875 "/></g></g></g></svg>